<svg width="145" height="145" viewBox="0 0 145 145" fill="none" xmlns="http://www.w3.org/2000/svg">
<path d="M129.134 21.5265H15.8653C15.1209 21.5258 14.3836 21.6718 13.6957 21.9563C13.0078 22.2408 12.3827 22.6582 11.8563 23.1846C11.3299 23.711 10.9125 24.3361 10.628 25.024C10.3435 25.7119 10.1975 26.4492 10.1982 27.1936V129.135C10.1982 132.264 12.7357 134.796 15.8653 134.796H129.134C132.258 134.796 134.796 132.258 134.796 129.135V27.1876C134.796 26.4437 134.65 25.7069 134.366 25.0193C134.082 24.3318 133.665 23.707 133.14 23.1807C132.614 22.6544 131.989 22.2369 131.302 21.952C130.615 21.6671 129.878 21.5265 129.134 21.5265Z" fill="#E3E3E3"/>
<path d="M134.796 44.1766H10.1982V27.1874C10.1982 24.0578 12.7357 21.5264 15.8653 21.5264H129.134C132.258 21.5264 134.796 24.0639 134.796 27.1874V44.1766Z" fill="white"/>
<path d="M27.1935 10.2041V27.1872M49.8437 10.2041V27.1872M72.4999 10.2041V27.1872M95.1562 10.2041V27.1872M117.806 10.2041V27.1872M129.134 21.5262H15.8653C15.1209 21.5254 14.3836 21.6714 13.6957 21.9559C13.0078 22.2405 12.3827 22.6579 11.8563 23.1843C11.3299 23.7107 10.9125 24.3357 10.628 25.0236C10.3435 25.7115 10.1975 26.4488 10.1982 27.1933V129.134C10.1982 132.264 12.7357 134.795 15.8653 134.795H129.134C132.258 134.795 134.796 132.258 134.796 129.134V27.1872C134.796 26.4433 134.65 25.7065 134.366 25.019C134.082 24.3315 133.665 23.7067 133.14 23.1804C132.614 22.654 131.989 22.2365 131.302 21.9516C130.615 21.6668 129.878 21.5262 129.134 21.5262Z" stroke="#191919" stroke-width="6.04167" stroke-linecap="round" stroke-linejoin="round"/>
<path d="M78.161 49.8441H95.1562V72.5004H72.5V55.4991C72.5 52.3695 75.0375 49.832 78.161 49.832" fill="#78EB7B"/>
<path d="M78.161 49.8441H95.1562V72.5004H72.5V55.4991C72.5 52.3695 75.0375 49.832 78.161 49.832" stroke="#191919" stroke-width="6.04167" stroke-linecap="round" stroke-linejoin="round"/>
<path d="M95.1564 49.8438H112.146C115.269 49.8438 117.807 52.3813 117.807 55.5048V72.494H95.1504L95.1564 49.8438Z" fill="#FF808C" stroke="#191919" stroke-width="6.04167" stroke-linecap="round" stroke-linejoin="round"/>
<path d="M95.1562 72.5H72.5V95.1562H95.1562V72.5Z" fill="#78EB7B" stroke="#191919" stroke-width="6.04167" stroke-linecap="round" stroke-linejoin="round"/>
<path d="M117.812 72.5H95.1562V95.1562H117.812V72.5Z" fill="#FF808C" stroke="#191919" stroke-width="6.04167" stroke-linecap="round" stroke-linejoin="round"/>
<path d="M95.1562 95.1562H72.5V117.812H95.1562V95.1562Z" fill="#78EB7B" stroke="#191919" stroke-width="6.04167" stroke-linecap="round" stroke-linejoin="round"/>
<path d="M95.1564 95.1504H117.813V112.14C117.813 115.269 115.275 117.801 112.146 117.801H95.1504L95.1564 95.1504Z" fill="#FF808C" stroke="#191919" stroke-width="6.04167" stroke-linecap="round" stroke-linejoin="round"/>
<path d="M32.8546 72.5002H49.8498V95.1504H27.1875V78.1552C27.1875 75.0316 29.725 72.4941 32.8485 72.4941" fill="#78EB7B"/>
<path d="M32.8546 72.5002H49.8498V95.1504H27.1875V78.1552C27.1875 75.0316 29.725 72.4941 32.8485 72.4941" stroke="#191919" stroke-width="6.04167" stroke-linecap="round" stroke-linejoin="round"/>
<path d="M72.5 72.5H49.8438V95.1562H72.5V72.5Z" fill="#78EB7B" stroke="#191919" stroke-width="6.04167" stroke-linecap="round" stroke-linejoin="round"/>
<path d="M27.1934 95.1504H49.8496V117.807H32.8544C32.1105 117.807 31.3738 117.66 30.6866 117.375C29.9994 117.09 29.3751 116.673 28.8493 116.146C28.3236 115.62 27.9067 114.995 27.6225 114.308C27.3384 113.62 27.1926 112.883 27.1934 112.14V95.1504Z" fill="#78EB7B" stroke="#191919" stroke-width="6.04167" stroke-linecap="round" stroke-linejoin="round"/>
<path d="M72.5 95.1562H49.8438V117.812H72.5V95.1562Z" fill="#78EB7B" stroke="#191919" stroke-width="6.04167" stroke-linecap="round" stroke-linejoin="round"/>
</svg>
